# xmcd
#
# Track frame offsets:
#	150
#	13587
#	25656
#	37161
#	55699
#	72027
#	94221
#	107411
#	121678
#	134821
#	147190
#	163558
#	173204
#	186878
#	201130
#	221628
#	235055
#	248833
#
# Disc length: 3496 seconds
#
# Revision: 0
# Processed by: cddbd v1.5.2PL0 Copyright (c) Steve Scherf et al.
# Submitted via: dBpowerAMP V4.0
#
DISCID=f80da612
DTITLE=Multiple - Najljepsa Kola
DYEAR=1900
DGENRE=
TTITLE0=Noletovo kolo
TTITLE1=Cacak
TTITLE2=Uzicko kolo
TTITLE3=Adranski vez
TTITLE4=Vranjanska igra
TTITLE5=Sarplaninska sota
TTITLE6=Takovsko kolo
TTITLE7=Devojacko kolo
TTITLE8=Glogonjski vez
TTITLE9=Sumadijski caj
TTITLE10=Zvecansko kolo
TTITLE11=Timocki brzak
TTITLE12=Vlaski dragulj
TTITLE13=Opa, cupa kolo
TTITLE14=Sano duso
TTITLE15=Pericino kolo
TTITLE16=Draganovo kolo
TTITLE17=Smakino kolo
EXTD=Zlatna Kolekcija, Najljepsa Kola 2
EXTT0=
EXTT1=
EXTT2=
EXTT3=
EXTT4=
EXTT5=
EXTT6=
EXTT7=
EXTT8=
EXTT9=
EXTT10=
EXTT11=
EXTT12=
EXTT13=
EXTT14=
EXTT15=
EXTT16=
EXTT17=
PLAYORDER=
